<mxfile host="app.diagrams.net" modified="2021-07-06T09:00:04.688Z" agent="5.0 (Macintosh; Intel Mac OS X 11_1_0) AppleWebKit/537.36 (KHTML, like Gecko) Chrome/87.0.4280.88 Safari/537.36" etag="EqWLhHl78KNN8qeUjw1n" version="14.8.4" type="github">
  <diagram id="uEofJK0at1W58z48pTd6" name="Page-1">
    <mxGraphModel dx="1298" dy="777" grid="1" gridSize="10" guides="1" tooltips="1" connect="1" arrows="1" fold="1" page="1" pageScale="1" pageWidth="827" pageHeight="1169" math="0" shadow="0">
      <root>
        <mxCell id="0" />
        <mxCell id="1" parent="0" />
        <mxCell id="vzXtz7gYnY3X_MXIiUKI-5" value="" style="edgeStyle=orthogonalEdgeStyle;rounded=0;orthogonalLoop=1;jettySize=auto;html=1;" edge="1" parent="1" source="vzXtz7gYnY3X_MXIiUKI-1" target="vzXtz7gYnY3X_MXIiUKI-4">
          <mxGeometry relative="1" as="geometry" />
        </mxCell>
        <mxCell id="vzXtz7gYnY3X_MXIiUKI-1" value="文档操作用户" style="shape=umlActor;verticalLabelPosition=bottom;verticalAlign=top;html=1;outlineConnect=0;" vertex="1" parent="1">
          <mxGeometry x="90" y="900" width="30" height="60" as="geometry" />
        </mxCell>
        <mxCell id="vzXtz7gYnY3X_MXIiUKI-9" value="" style="edgeStyle=orthogonalEdgeStyle;rounded=0;orthogonalLoop=1;jettySize=auto;html=1;jumpStyle=none;exitX=0;exitY=0;exitDx=0;exitDy=0;" edge="1" parent="1" source="vzXtz7gYnY3X_MXIiUKI-4" target="vzXtz7gYnY3X_MXIiUKI-8">
          <mxGeometry relative="1" as="geometry" />
        </mxCell>
        <mxCell id="vzXtz7gYnY3X_MXIiUKI-15" value="&amp;lt;&amp;lt;include&amp;gt;&amp;gt;" style="edgeLabel;html=1;align=center;verticalAlign=middle;resizable=0;points=[];" vertex="1" connectable="0" parent="vzXtz7gYnY3X_MXIiUKI-9">
          <mxGeometry x="0.1" y="-3" relative="1" as="geometry">
            <mxPoint as="offset" />
          </mxGeometry>
        </mxCell>
        <mxCell id="vzXtz7gYnY3X_MXIiUKI-17" value="" style="edgeStyle=orthogonalEdgeStyle;rounded=0;jumpStyle=none;orthogonalLoop=1;jettySize=auto;html=1;strokeColor=#000000;exitX=0;exitY=1;exitDx=0;exitDy=0;" edge="1" parent="1" source="vzXtz7gYnY3X_MXIiUKI-4" target="vzXtz7gYnY3X_MXIiUKI-16">
          <mxGeometry relative="1" as="geometry" />
        </mxCell>
        <mxCell id="vzXtz7gYnY3X_MXIiUKI-18" value="&amp;lt;&amp;lt;include&amp;gt;&amp;gt;" style="edgeLabel;html=1;align=center;verticalAlign=middle;resizable=0;points=[];" vertex="1" connectable="0" parent="vzXtz7gYnY3X_MXIiUKI-17">
          <mxGeometry x="-0.2" y="1" relative="1" as="geometry">
            <mxPoint as="offset" />
          </mxGeometry>
        </mxCell>
        <mxCell id="vzXtz7gYnY3X_MXIiUKI-4" value="&lt;br&gt;更新文档链接" style="ellipse;whiteSpace=wrap;html=1;verticalAlign=top;" vertex="1" parent="1">
          <mxGeometry x="240" y="900" width="120" height="60" as="geometry" />
        </mxCell>
        <mxCell id="vzXtz7gYnY3X_MXIiUKI-8" value="&lt;br&gt;插入引用文档&lt;br&gt;[可批量]" style="ellipse;whiteSpace=wrap;html=1;verticalAlign=top;" vertex="1" parent="1">
          <mxGeometry x="197" y="760" width="120" height="60" as="geometry" />
        </mxCell>
        <mxCell id="vzXtz7gYnY3X_MXIiUKI-20" value="" style="edgeStyle=orthogonalEdgeStyle;rounded=0;jumpStyle=none;orthogonalLoop=1;jettySize=auto;html=1;strokeColor=#000000;" edge="1" parent="1" source="vzXtz7gYnY3X_MXIiUKI-13" target="vzXtz7gYnY3X_MXIiUKI-19">
          <mxGeometry relative="1" as="geometry" />
        </mxCell>
        <mxCell id="vzXtz7gYnY3X_MXIiUKI-13" value="查看文档关系用户" style="shape=umlActor;verticalLabelPosition=bottom;verticalAlign=top;html=1;outlineConnect=0;" vertex="1" parent="1">
          <mxGeometry x="640" y="900" width="30" height="60" as="geometry" />
        </mxCell>
        <mxCell id="vzXtz7gYnY3X_MXIiUKI-16" value="&lt;br&gt;删除引用文档&lt;br&gt;[可批量]" style="ellipse;whiteSpace=wrap;html=1;verticalAlign=top;" vertex="1" parent="1">
          <mxGeometry x="197" y="1030" width="120" height="60" as="geometry" />
        </mxCell>
        <mxCell id="vzXtz7gYnY3X_MXIiUKI-19" value="&lt;br&gt;查看文档关系图" style="ellipse;whiteSpace=wrap;html=1;verticalAlign=top;" vertex="1" parent="1">
          <mxGeometry x="430" y="900" width="120" height="60" as="geometry" />
        </mxCell>
      </root>
    </mxGraphModel>
  </diagram>
</mxfile>
